<svg width="371" height="151" viewBox="0 0 371 151" fill="none" xmlns="http://www.w3.org/2000/svg">
<g filter="url(#filter0_d)">
<path d="M4.27 92.93C4.27 76.4887 9.077 64.0183 18.691 55.519C28.305 47.0197 40.4967 42.77 55.266 42.77C70.1747 42.77 81.2517 46.532 88.497 54.056C95.7423 61.4407 98.32 69.104 96.23 77.046C95.1153 81.3653 92.7467 84.57 89.124 86.66C85.6407 88.6107 81.809 89.0983 77.629 88.123C68.851 86.033 64.462 80.9473 64.462 72.866C64.462 70.776 64.671 67.641 65.089 63.461C65.6463 59.1417 65.8553 56.0067 65.716 54.056C65.5767 52.1053 65.1587 50.5727 64.462 49.458C63.0687 47.0893 59.7943 46.1837 54.639 46.741C42.099 48.6917 35.829 64.088 35.829 92.93C35.829 121.633 46.07 135.984 66.552 135.984C71.2893 135.984 76.0963 134.73 80.973 132.222C85.8497 129.714 89.4723 126.718 91.841 123.235L94.767 125.325C91.5623 130.62 86.7553 134.869 80.346 138.074C73.9367 141.279 66.761 142.881 58.819 142.881C22.453 142.881 4.27 126.231 4.27 92.93ZM221.197 136.82H231.647V141H179.397V136.82H189.847V78.3C189.847 68.4073 188.384 61.371 185.458 57.191C182.532 53.011 178.143 50.921 172.291 50.921C164.349 50.921 158.01 55.101 153.272 63.461V136.82H163.722V141H111.472V136.82H121.922V49.04H111.472V44.86H153.272V55.728C155.92 52.1053 160.03 49.04 165.603 46.532C171.316 43.8847 177.447 42.561 183.995 42.561C208.797 42.561 221.197 56.0067 221.197 82.898V136.82ZM355.904 136.82H366.354V141H314.104V136.82H324.554V78.3C324.554 68.4073 323.091 61.371 320.165 57.191C317.239 53.011 312.85 50.921 306.998 50.921C299.056 50.921 292.717 55.101 287.979 63.461V136.82H298.429V141H246.179V136.82H256.629V5.14999H246.179V0.969997H287.979V55.728C290.627 51.966 294.737 48.831 300.31 46.323C305.884 43.815 312.014 42.561 318.702 42.561C343.504 42.561 355.904 56.0067 355.904 82.898V136.82Z" fill="white"/>
</g>
<defs>
<filter id="filter0_d" x="0.27002" y="0.970001" width="370.084" height="149.911" filterUnits="userSpaceOnUse" color-interpolation-filters="sRGB">
<feFlood flood-opacity="0" result="BackgroundImageFix"/>
<feColorMatrix in="SourceAlpha" type="matrix" values="0 0 0 0 0 0 0 0 0 0 0 0 0 0 0 0 0 0 127 0" result="hardAlpha"/>
<feOffset dy="4"/>
<feGaussianBlur stdDeviation="2"/>
<feComposite in2="hardAlpha" operator="out"/>
<feColorMatrix type="matrix" values="0 0 0 0 0 0 0 0 0 0 0 0 0 0 0 0 0 0 0.25 0"/>
<feBlend mode="normal" in2="BackgroundImageFix" result="effect1_dropShadow"/>
<feBlend mode="normal" in="SourceGraphic" in2="effect1_dropShadow" result="shape"/>
</filter>
</defs>
</svg>
